<svg width="707" height="419" viewBox="0 0 707 419" fill="none" xmlns="http://www.w3.org/2000/svg">
<path d="M707 0H0V419H707V0Z" fill="#332D47"/>
<rect x="65.5" y="50.5" width="175" height="263" rx="8.5" fill="#282337" stroke="#4A83F0"/>
<rect x="40.5" y="233.5" width="100" height="100" rx="50" fill="#F4B860" stroke="#4A83F0"/>
<path d="M341.05 207V173.9H355.9C358.5 173.9 360.55 174.35 362.05 175.25C363.583 176.15 364.683 177.283 365.35 178.65C366.017 179.983 366.35 181.317 366.35 182.65C366.35 184.783 365.9 186.433 365 187.6C364.1 188.733 363.067 189.567 361.9 190.1C362.833 190.4 363.767 190.883 364.7 191.55C365.667 192.183 366.467 193.05 367.1 194.15C367.733 195.25 368.05 196.633 368.05 198.3C368.05 200.767 367.1 202.833 365.2 204.5C363.333 206.167 360.517 207 356.75 207H341.05ZM344.8 188.7H355.9C357.067 188.7 358.15 188.5 359.15 188.1C360.183 187.7 361.017 187.083 361.65 186.25C362.283 185.383 362.6 184.283 362.6 182.95C362.6 182.017 362.383 181.133 361.95 180.3C361.55 179.467 360.883 178.783 359.95 178.25C359.05 177.717 357.833 177.45 356.3 177.45H344.8V188.7ZM344.8 203.45H357.15C359.417 203.45 361.167 202.983 362.4 202.05C363.667 201.083 364.3 199.733 364.3 198C364.3 196.433 363.7 195.067 362.5 193.9C361.3 192.7 359.383 192.1 356.75 192.1H344.8V203.45ZM375.155 207V173.9H391.005C394.405 173.9 397.105 174.833 399.105 176.7C401.139 178.567 402.155 181.083 402.155 184.25C402.155 186.383 401.739 188.083 400.905 189.35C400.105 190.617 399.089 191.583 397.855 192.25C396.622 192.883 395.389 193.35 394.155 193.65L402.855 207H398.405L390.405 194.3H378.905V207H375.155ZM378.905 190.75H390.355C391.555 190.75 392.772 190.567 394.005 190.2C395.239 189.833 396.272 189.183 397.105 188.25C397.972 187.283 398.405 185.95 398.405 184.25C398.405 182.15 397.689 180.5 396.255 179.3C394.822 178.067 392.922 177.45 390.555 177.45H378.905V190.75ZM424.303 207.4C421.803 207.4 419.519 206.967 417.453 206.1C415.386 205.233 413.603 204.017 412.103 202.45C410.636 200.883 409.503 199.083 408.703 197.05C407.903 194.983 407.503 192.783 407.503 190.45C407.503 188.083 407.903 185.883 408.703 183.85C409.503 181.817 410.636 180.017 412.103 178.45C413.603 176.883 415.386 175.667 417.453 174.8C419.519 173.933 421.803 173.5 424.303 173.5C426.803 173.5 429.086 173.933 431.153 174.8C433.219 175.667 434.986 176.883 436.453 178.45C437.953 180.017 439.103 181.817 439.903 183.85C440.703 185.883 441.103 188.083 441.103 190.45C441.103 192.783 440.703 194.983 439.903 197.05C439.103 199.083 437.953 200.883 436.453 202.45C434.986 204.017 433.219 205.233 431.153 206.1C429.086 206.967 426.803 207.4 424.303 207.4ZM424.303 203.75C427.003 203.75 429.319 203.167 431.253 202C433.219 200.8 434.719 199.2 435.753 197.2C436.819 195.167 437.353 192.917 437.353 190.45C437.353 187.95 436.819 185.7 435.753 183.7C434.719 181.7 433.219 180.117 431.253 178.95C429.319 177.75 427.003 177.15 424.303 177.15C421.636 177.15 419.319 177.75 417.353 178.95C415.386 180.117 413.869 181.7 412.803 183.7C411.769 185.7 411.253 187.95 411.253 190.45C411.253 192.917 411.769 195.167 412.803 197.2C413.869 199.2 415.386 200.8 417.353 202C419.319 203.167 421.636 203.75 424.303 203.75ZM448.103 207V173.9H462.053C464.019 173.9 465.903 174.283 467.703 175.05C469.536 175.783 471.169 176.867 472.603 178.3C474.036 179.733 475.169 181.467 476.003 183.5C476.836 185.533 477.253 187.85 477.253 190.45C477.253 193.05 476.836 195.367 476.003 197.4C475.169 199.433 474.036 201.167 472.603 202.6C471.169 204.033 469.536 205.133 467.703 205.9C465.903 206.633 464.019 207 462.053 207H448.103ZM451.853 203.45H461.903C464.269 203.45 466.319 202.85 468.053 201.65C469.786 200.45 471.119 198.867 472.053 196.9C473.019 194.933 473.503 192.783 473.503 190.45C473.503 188.083 473.019 185.917 472.053 183.95C471.119 181.983 469.786 180.417 468.053 179.25C466.319 178.05 464.269 177.45 461.903 177.45H451.853V203.45ZM492.501 207V193.9L478.601 173.9H483.151L494.351 190L505.551 173.9H510.101L496.251 193.9V207H492.501ZM349.25 259V229.45H337.7V225.9H364.55V229.45H353V259H349.25ZM370.321 259V225.9H394.671V229.5H374.071V240.6H392.471V244.25H374.071V255.4H394.671V259H370.321ZM409.941 259V229.45H398.391V225.9H425.241V229.45H413.691V259H409.941ZM431.013 259V225.9H446.863C450.263 225.9 452.963 226.833 454.963 228.7C456.996 230.567 458.013 233.083 458.013 236.25C458.013 238.383 457.596 240.083 456.763 241.35C455.963 242.617 454.946 243.583 453.713 244.25C452.48 244.883 451.246 245.35 450.013 245.65L458.713 259H454.263L446.263 246.3H434.763V259H431.013ZM434.763 242.75H446.213C447.413 242.75 448.63 242.567 449.863 242.2C451.096 241.833 452.13 241.183 452.963 240.25C453.83 239.283 454.263 237.95 454.263 236.25C454.263 234.15 453.546 232.5 452.113 231.3C450.68 230.067 448.78 229.45 446.413 229.45H434.763V242.75ZM465.46 259V225.9H489.81V229.5H469.21V240.6H487.61V244.25H469.21V255.4H489.81V259H465.46ZM492.98 259L507.03 225.9H511.73L525.78 259H521.63L517.58 249.4H501.18L497.13 259H492.98ZM502.63 245.95H516.13L509.38 229.8L502.63 245.95ZM543.415 259.4C540.682 259.4 538.248 258.8 536.115 257.6C534.015 256.367 532.365 254.65 531.165 252.45C529.965 250.25 529.365 247.683 529.365 244.75V225.9H533.115V244.85C533.115 247.417 533.598 249.5 534.565 251.1C535.565 252.7 536.848 253.883 538.415 254.65C540.015 255.383 541.682 255.75 543.415 255.75C545.182 255.75 546.848 255.383 548.415 254.65C549.982 253.883 551.265 252.7 552.265 251.1C553.265 249.5 553.765 247.417 553.765 244.85V225.9H557.515V244.75C557.515 247.65 556.915 250.2 555.715 252.4C554.515 254.6 552.848 256.317 550.715 257.55C548.615 258.783 546.182 259.4 543.415 259.4ZM566.214 259V225.9H569.964V255.4H588.014V259H566.214ZM596.703 259V229.45H585.153V225.9H612.003V229.45H600.453V259H596.703Z" fill="#F4B860"/>
<path d="M341.05 207H339.05V209H341.05V207ZM341.05 173.9V171.9H339.05V173.9H341.05ZM362.05 175.25L361.021 176.965L361.029 176.97L361.038 176.975L362.05 175.25ZM365.35 178.65L363.552 179.527L363.557 179.536L363.561 179.544L365.35 178.65ZM365 187.6L366.566 188.844L366.575 188.833L366.584 188.822L365 187.6ZM361.9 190.1L361.068 188.281L356.377 190.426L361.288 192.004L361.9 190.1ZM364.7 191.55L363.538 193.177L363.57 193.201L363.604 193.223L364.7 191.55ZM367.1 194.15L368.833 193.152L368.833 193.152L367.1 194.15ZM365.2 204.5L363.881 202.996L363.875 203.002L363.868 203.008L365.2 204.5ZM344.8 188.7H342.8V190.7H344.8V188.7ZM359.15 188.1L358.428 186.235L358.418 186.239L358.407 186.243L359.15 188.1ZM361.65 186.25L363.242 187.46L363.254 187.445L363.265 187.43L361.65 186.25ZM361.95 180.3L360.147 181.165L360.161 181.194L360.176 181.223L361.95 180.3ZM359.95 178.25L358.93 179.971L358.944 179.979L358.958 179.986L359.95 178.25ZM344.8 177.45V175.45H342.8V177.45H344.8ZM344.8 203.45H342.8V205.45H344.8V203.45ZM362.4 202.05L363.607 203.645L363.613 203.64L362.4 202.05ZM362.5 193.9L361.086 195.314L361.096 195.324L361.106 195.334L362.5 193.9ZM344.8 192.1V190.1H342.8V192.1H344.8ZM343.05 207V173.9H339.05V207H343.05ZM341.05 175.9H355.9V171.9H341.05V175.9ZM355.9 175.9C358.302 175.9 359.948 176.321 361.021 176.965L363.079 173.535C361.152 172.379 358.698 171.9 355.9 171.9V175.9ZM361.038 176.975C362.29 177.71 363.086 178.571 363.552 179.527L367.148 177.773C366.281 175.996 364.876 174.59 363.062 173.525L361.038 176.975ZM363.561 179.544C364.106 180.633 364.35 181.662 364.35 182.65H368.35C368.35 180.971 367.928 179.333 367.139 177.756L363.561 179.544ZM364.35 182.65C364.35 184.533 363.949 185.688 363.416 186.378L366.584 188.822C367.851 187.179 368.35 185.034 368.35 182.65H364.35ZM363.434 186.356C362.705 187.275 361.913 187.895 361.068 188.281L362.732 191.919C364.22 191.239 365.495 190.192 366.566 188.844L363.434 186.356ZM361.288 192.004C361.995 192.231 362.744 192.611 363.538 193.177L365.862 189.923C364.789 189.156 363.672 188.569 362.512 188.196L361.288 192.004ZM363.604 193.223C364.283 193.668 364.874 194.293 365.367 195.148L368.833 193.152C368.059 191.807 367.05 190.699 365.796 189.877L363.604 193.223ZM365.367 195.148C365.779 195.864 366.05 196.877 366.05 198.3H370.05C370.05 196.39 369.688 194.636 368.833 193.152L365.367 195.148ZM366.05 198.3C366.05 200.175 365.36 201.699 363.881 202.996L366.519 206.004C368.84 203.968 370.05 201.359 370.05 198.3H366.05ZM363.868 203.008C362.515 204.216 360.266 205 356.75 205V209C360.767 209 364.152 208.117 366.532 205.992L363.868 203.008ZM356.75 205H341.05V209H356.75V205ZM344.8 190.7H355.9V186.7H344.8V190.7ZM355.9 190.7C357.3 190.7 358.638 190.459 359.893 189.957L358.407 186.243C357.662 186.541 356.834 186.7 355.9 186.7V190.7ZM359.872 189.965C361.229 189.44 362.372 188.606 363.242 187.46L360.058 185.04C359.662 185.561 359.137 185.96 358.428 186.235L359.872 189.965ZM363.265 187.43C364.204 186.145 364.6 184.603 364.6 182.95H360.6C360.6 183.963 360.363 184.621 360.035 185.07L363.265 187.43ZM364.6 182.95C364.6 181.693 364.305 180.494 363.724 179.377L360.176 181.223C360.462 181.773 360.6 182.34 360.6 182.95H364.6ZM363.753 179.435C363.15 178.178 362.169 177.214 360.942 176.514L358.958 179.986C359.598 180.352 359.95 180.755 360.147 181.165L363.753 179.435ZM360.97 176.529C359.65 175.747 358.036 175.45 356.3 175.45V179.45C357.631 179.45 358.45 179.686 358.93 179.971L360.97 176.529ZM356.3 175.45H344.8V179.45H356.3V175.45ZM342.8 177.45V188.7H346.8V177.45H342.8ZM344.8 205.45H357.15V201.45H344.8V205.45ZM357.15 205.45C359.658 205.45 361.898 204.938 363.607 203.645L361.193 200.455C360.436 201.028 359.176 201.45 357.15 201.45V205.45ZM363.613 203.64C365.424 202.258 366.3 200.294 366.3 198H362.3C362.3 199.173 361.909 199.909 361.187 200.46L363.613 203.64ZM366.3 198C366.3 195.853 365.452 193.981 363.894 192.466L361.106 195.334C361.948 196.153 362.3 197.013 362.3 198H366.3ZM363.914 192.486C362.177 190.748 359.629 190.1 356.75 190.1V194.1C359.138 194.1 360.423 194.652 361.086 195.314L363.914 192.486ZM356.75 190.1H344.8V194.1H356.75V190.1ZM342.8 192.1V203.45H346.8V192.1H342.8ZM375.155 207H373.155V209H375.155V207ZM375.155 173.9V171.9H373.155V173.9H375.155ZM399.105 176.7L397.741 178.162L397.747 178.168L397.753 178.173L399.105 176.7ZM400.905 189.35L399.235 188.251L399.224 188.266L399.214 188.282L400.905 189.35ZM397.855 192.25L398.769 194.029L398.788 194.019L398.807 194.009L397.855 192.25ZM394.155 193.65L393.683 191.707L390.937 192.375L392.48 194.742L394.155 193.65ZM402.855 207V209H406.546L404.531 205.908L402.855 207ZM398.405 207L396.713 208.066L397.302 209H398.405V207ZM390.405 194.3L392.098 193.234L391.509 192.3H390.405V194.3ZM378.905 194.3V192.3H376.905V194.3H378.905ZM378.905 207V209H380.905V207H378.905ZM378.905 190.75H376.905V192.75H378.905V190.75ZM394.005 190.2L393.436 188.283L393.436 188.283L394.005 190.2ZM397.105 188.25L395.616 186.915L395.614 186.918L397.105 188.25ZM396.255 179.3L394.951 180.816L394.961 180.825L394.972 180.834L396.255 179.3ZM378.905 177.45V175.45H376.905V177.45H378.905ZM377.155 207V173.9H373.155V207H377.155ZM375.155 175.9H391.005V171.9H375.155V175.9ZM391.005 175.9C394.028 175.9 396.196 176.72 397.741 178.162L400.47 175.238C398.015 172.947 394.783 171.9 391.005 171.9V175.9ZM397.753 178.173C399.311 179.604 400.155 181.553 400.155 184.25H404.155C404.155 180.614 402.966 177.529 400.458 175.227L397.753 178.173ZM400.155 184.25C400.155 186.145 399.782 187.418 399.235 188.251L402.576 190.449C403.695 188.749 404.155 186.621 404.155 184.25H400.155ZM399.214 188.282C398.585 189.279 397.815 189.998 396.904 190.491L398.807 194.009C400.362 193.168 401.626 191.954 402.596 190.418L399.214 188.282ZM396.942 190.471C395.836 191.039 394.75 191.447 393.683 191.707L394.628 195.593C396.028 195.253 397.409 194.728 398.769 194.029L396.942 190.471ZM392.48 194.742L401.18 208.092L404.531 205.908L395.831 192.558L392.48 194.742ZM402.855 205H398.405V209H402.855V205ZM400.098 205.934L392.098 193.234L388.713 195.366L396.713 208.066L400.098 205.934ZM390.405 192.3H378.905V196.3H390.405V192.3ZM376.905 194.3V207H380.905V194.3H376.905ZM378.905 205H375.155V209H378.905V205ZM378.905 192.75H390.355V188.75H378.905V192.75ZM390.355 192.75C391.762 192.75 393.17 192.535 394.575 192.117L393.436 188.283C392.374 188.599 391.349 188.75 390.355 188.75V192.75ZM394.575 192.117C396.154 191.648 397.51 190.8 398.597 189.582L395.614 186.918C395.035 187.566 394.324 188.019 393.436 188.283L394.575 192.117ZM398.595 189.585C399.881 188.15 400.405 186.287 400.405 184.25H396.405C396.405 185.613 396.063 186.417 395.616 186.915L398.595 189.585ZM400.405 184.25C400.405 181.64 399.486 179.396 397.539 177.766L394.972 180.834C395.892 181.604 396.405 182.66 396.405 184.25H400.405ZM397.56 177.784C395.679 176.166 393.276 175.45 390.555 175.45V179.45C392.568 179.45 393.965 179.967 394.951 180.816L397.56 177.784ZM390.555 175.45H378.905V179.45H390.555V175.45ZM376.905 177.45V190.75H380.905V177.45H376.905ZM417.453 206.1L416.679 207.944L416.679 207.944L417.453 206.1ZM412.103 202.45L410.643 203.817L410.65 203.825L410.658 203.833L412.103 202.45ZM408.703 197.05L406.838 197.772L406.842 197.782L408.703 197.05ZM408.703 183.85L406.842 183.118L406.842 183.118L408.703 183.85ZM412.103 178.45L410.658 177.067L410.65 177.075L410.643 177.083L412.103 178.45ZM417.453 174.8L416.679 172.956L416.679 172.956L417.453 174.8ZM431.153 174.8L431.926 172.956L431.926 172.956L431.153 174.8ZM436.453 178.45L434.993 179.817L435 179.825L435.008 179.833L436.453 178.45ZM439.903 197.05L441.764 197.782L441.768 197.772L439.903 197.05ZM436.453 202.45L435.008 201.067L435 201.075L434.993 201.083L436.453 202.45ZM431.153 206.1L431.926 207.944L431.926 207.944L431.153 206.1ZM431.253 202L432.286 203.712L432.294 203.707L431.253 202ZM435.753 197.2L433.982 196.271L433.976 196.282L435.753 197.2ZM435.753 183.7L433.976 184.618L433.982 184.63L433.988 184.641L435.753 183.7ZM431.253 178.95L430.198 180.649L430.215 180.66L430.232 180.67L431.253 178.95ZM417.353 178.95L418.373 180.67L418.384 180.664L418.394 180.657L417.353 178.95ZM412.803 183.7L411.038 182.759L411.032 182.77L411.026 182.782L412.803 183.7ZM412.803 197.2L411.02 198.106L411.029 198.124L411.038 198.141L412.803 197.2ZM417.353 202L416.311 203.707L416.322 203.714L416.332 203.72L417.353 202ZM424.303 205.4C422.038 205.4 420.021 205.008 418.226 204.256L416.679 207.944C419.018 208.925 421.568 209.4 424.303 209.4V205.4ZM418.226 204.256C416.404 203.491 414.851 202.429 413.547 201.067L410.658 203.833C412.354 205.605 414.368 206.975 416.679 207.944L418.226 204.256ZM413.563 201.083C412.272 199.704 411.273 198.12 410.564 196.318L406.842 197.782C407.732 200.046 409 202.062 410.643 203.817L413.563 201.083ZM410.568 196.328C409.862 194.504 409.503 192.55 409.503 190.45H405.503C405.503 193.017 405.944 195.463 406.838 197.772L410.568 196.328ZM409.503 190.45C409.503 188.313 409.863 186.364 410.564 184.582L406.842 183.118C405.942 185.403 405.503 187.854 405.503 190.45H409.503ZM410.564 184.582C411.273 182.78 412.272 181.196 413.563 179.817L410.643 177.083C409 178.838 407.732 180.854 406.842 183.118L410.564 184.582ZM413.547 179.833C414.851 178.471 416.404 177.409 418.226 176.644L416.679 172.956C414.368 173.925 412.354 175.295 410.658 177.067L413.547 179.833ZM418.226 176.644C420.021 175.892 422.038 175.5 424.303 175.5V171.5C421.568 171.5 419.018 171.975 416.679 172.956L418.226 176.644ZM424.303 175.5C426.568 175.5 428.584 175.892 430.379 176.644L431.926 172.956C429.588 171.975 427.038 171.5 424.303 171.5V175.5ZM430.379 176.644C432.198 177.407 433.727 178.465 434.993 179.817L437.913 177.083C436.245 175.302 434.241 173.926 431.926 172.956L430.379 176.644ZM435.008 179.833C436.327 181.211 437.336 182.789 438.042 184.582L441.764 183.118C440.869 180.844 439.579 178.823 437.897 177.067L435.008 179.833ZM438.042 184.582C438.742 186.364 439.103 188.313 439.103 190.45H443.103C443.103 187.854 442.663 185.403 441.764 183.118L438.042 184.582ZM439.103 190.45C439.103 192.55 438.744 194.504 438.038 196.328L441.768 197.772C442.662 195.463 443.103 193.017 443.103 190.45H439.103ZM438.042 196.318C437.336 198.111 436.327 199.689 435.008 201.067L437.897 203.833C439.579 202.077 440.869 200.056 441.764 197.782L438.042 196.318ZM434.993 201.083C433.727 202.435 432.198 203.493 430.379 204.256L431.926 207.944C434.241 206.974 436.245 205.598 437.913 203.817L434.993 201.083ZM430.379 204.256C428.584 205.008 426.568 205.4 424.303 205.4V209.4C427.038 209.4 429.588 208.925 431.926 207.944L430.379 204.256ZM424.303 205.75C427.295 205.75 429.985 205.101 432.286 203.712L430.219 200.288C428.654 201.232 426.71 201.75 424.303 201.75V205.75ZM432.294 203.707C434.566 202.321 436.324 200.451 437.53 198.118L433.976 196.282C433.115 197.949 431.873 199.279 430.211 200.293L432.294 203.707ZM437.524 198.129C438.752 195.788 439.353 193.216 439.353 190.45H435.353C435.353 192.618 434.887 194.545 433.982 196.271L437.524 198.129ZM439.353 190.45C439.353 187.656 438.754 185.077 437.517 182.759L433.988 184.641C434.885 186.323 435.353 188.244 435.353 190.45H439.353ZM437.53 182.782C436.321 180.444 434.557 178.585 432.273 177.23L430.232 180.67C431.882 181.649 433.117 182.956 433.976 184.618L437.53 182.782ZM432.307 177.251C430.003 175.82 427.305 175.15 424.303 175.15V179.15C426.7 179.15 428.636 179.68 430.198 180.649L432.307 177.251ZM424.303 175.15C421.327 175.15 418.638 175.823 416.311 177.243L418.394 180.657C420.001 179.677 421.945 179.15 424.303 179.15V175.15ZM416.332 177.23C414.054 178.581 412.278 180.433 411.038 182.759L414.567 184.641C415.46 182.967 416.718 181.652 418.373 180.67L416.332 177.23ZM411.026 182.782C409.83 185.096 409.253 187.666 409.253 190.45H413.253C413.253 188.234 413.708 186.304 414.58 184.618L411.026 182.782ZM409.253 190.45C409.253 193.205 409.832 195.77 411.02 198.106L414.586 196.294C413.706 194.564 413.253 192.628 413.253 190.45H409.253ZM411.038 198.141C412.276 200.462 414.044 202.324 416.311 203.707L418.394 200.293C416.728 199.276 415.463 197.938 414.567 196.259L411.038 198.141ZM416.332 203.72C418.656 205.099 421.337 205.75 424.303 205.75V201.75C421.935 201.75 419.983 201.235 418.373 200.28L416.332 203.72ZM448.103 207H446.103V209H448.103V207ZM448.103 173.9V171.9H446.103V173.9H448.103ZM467.703 175.05L466.919 176.89L466.939 176.899L466.96 176.907L467.703 175.05ZM476.003 183.5L477.853 182.742L477.853 182.742L476.003 183.5ZM476.003 197.4L477.853 198.158L477.853 198.158L476.003 197.4ZM472.603 202.6L474.017 204.014L474.017 204.014L472.603 202.6ZM467.703 205.9L468.457 207.752L468.466 207.749L468.474 207.745L467.703 205.9ZM451.853 203.45H449.853V205.45H451.853V203.45ZM468.053 201.65L466.914 200.006L466.914 200.006L468.053 201.65ZM472.053 196.9L470.258 196.018L470.252 196.03L470.246 196.043L472.053 196.9ZM472.053 183.95L470.246 184.807L470.252 184.82L470.258 184.832L472.053 183.95ZM468.053 179.25L466.914 180.894L466.925 180.902L466.936 180.909L468.053 179.25ZM451.853 177.45V175.45H449.853V177.45H451.853ZM450.103 207V173.9H446.103V207H450.103ZM448.103 175.9H462.053V171.9H448.103V175.9ZM462.053 175.9C463.752 175.9 465.368 176.229 466.919 176.89L468.486 173.21C466.437 172.337 464.287 171.9 462.053 171.9V175.9ZM466.96 176.907C468.535 177.537 469.941 178.467 471.189 179.714L474.017 176.886C472.397 175.266 470.537 174.03 468.446 173.193L466.96 176.907ZM471.189 179.714C472.419 180.945 473.411 182.45 474.152 184.258L477.853 182.742C476.928 180.484 475.653 178.522 474.017 176.886L471.189 179.714ZM474.152 184.258C474.87 186.011 475.253 188.063 475.253 190.45H479.253C479.253 187.637 478.802 185.055 477.853 182.742L474.152 184.258ZM475.253 190.45C475.253 192.837 474.87 194.889 474.152 196.642L477.853 198.158C478.802 195.845 479.253 193.263 479.253 190.45H475.253ZM474.152 196.642C473.411 198.45 472.419 199.955 471.189 201.186L474.017 204.014C475.653 202.378 476.928 200.416 477.853 198.158L474.152 196.642ZM471.189 201.186C469.936 202.439 468.519 203.391 466.931 204.055L468.474 207.745C470.553 206.876 472.403 205.628 474.017 204.014L471.189 201.186ZM466.948 204.048C465.391 204.682 463.764 205 462.053 205V209C464.275 209 466.415 208.584 468.457 207.752L466.948 204.048ZM462.053 205H448.103V209H462.053V205ZM451.853 205.45H461.903V201.45H451.853V205.45ZM461.903 205.45C464.624 205.45 467.083 204.754 469.191 203.294L466.914 200.006C465.556 200.946 463.914 201.45 461.903 201.45V205.45ZM469.191 203.294C471.222 201.888 472.781 200.03 473.86 197.757L470.246 196.043C469.458 197.704 468.35 199.012 466.914 200.006L469.191 203.294ZM473.848 197.782C474.958 195.523 475.503 193.069 475.503 190.45H471.503C471.503 192.498 471.081 194.343 470.258 196.018L473.848 197.782ZM475.503 190.45C475.503 187.802 474.96 185.33 473.848 183.068L470.258 184.832C471.079 186.503 471.503 188.364 471.503 190.45H475.503ZM473.86 183.093C472.779 180.816 471.213 178.967 469.169 177.591L466.936 180.909C468.359 181.867 469.46 183.151 470.246 184.807L473.86 183.093ZM469.191 177.606C467.083 176.146 464.624 175.45 461.903 175.45V179.45C463.914 179.45 465.556 179.954 466.914 180.894L469.191 177.606ZM461.903 175.45H451.853V179.45H461.903V175.45ZM449.853 177.45V203.45H453.853V177.45H449.853ZM492.501 207H490.501V209H492.501V207ZM492.501 193.9H494.501V193.273L494.143 192.759L492.501 193.9ZM478.601 173.9V171.9H474.776L476.959 175.041L478.601 173.9ZM483.151 173.9L484.793 172.758L484.196 171.9H483.151V173.9ZM494.351 190L492.709 191.142L494.351 193.502L495.993 191.142L494.351 190ZM505.551 173.9V171.9H504.506L503.909 172.758L505.551 173.9ZM510.101 173.9L511.745 175.039L513.919 171.9H510.101V173.9ZM496.251 193.9L494.607 192.761L494.251 193.275V193.9H496.251ZM496.251 207V209H498.251V207H496.251ZM494.501 207V193.9H490.501V207H494.501ZM494.143 192.759L480.243 172.759L476.959 175.041L490.859 195.041L494.143 192.759ZM478.601 175.9H483.151V171.9H478.601V175.9ZM481.509 175.042L492.709 191.142L495.993 188.858L484.793 172.758L481.509 175.042ZM495.993 191.142L507.193 175.042L503.909 172.758L492.709 188.858L495.993 191.142ZM505.551 175.9H510.101V171.9H505.551V175.9ZM508.457 172.761L494.607 192.761L497.895 195.039L511.745 175.039L508.457 172.761ZM494.251 193.9V207H498.251V193.9H494.251ZM496.251 205H492.501V209H496.251V205ZM349.25 259H347.25V261H349.25V259ZM349.25 229.45H351.25V227.45H349.25V229.45ZM337.7 229.45H335.7V231.45H337.7V229.45ZM337.7 225.9V223.9H335.7V225.9H337.7ZM364.55 225.9H366.55V223.9H364.55V225.9ZM364.55 229.45V231.45H366.55V229.45H364.55ZM353 229.45V227.45H351V229.45H353ZM353 259V261H355V259H353ZM351.25 259V229.45H347.25V259H351.25ZM349.25 227.45H337.7V231.45H349.25V227.45ZM339.7 229.45V225.9H335.7V229.45H339.7ZM337.7 227.9H364.55V223.9H337.7V227.9ZM362.55 225.9V229.45H366.55V225.9H362.55ZM364.55 227.45H353V231.45H364.55V227.45ZM351 229.45V259H355V229.45H351ZM353 257H349.25V261H353V257ZM370.321 259H368.321V261H370.321V259ZM370.321 225.9V223.9H368.321V225.9H370.321ZM394.671 225.9H396.671V223.9H394.671V225.9ZM394.671 229.5V231.5H396.671V229.5H394.671ZM374.071 229.5V227.5H372.071V229.5H374.071ZM374.071 240.6H372.071V242.6H374.071V240.6ZM392.471 240.6H394.471V238.6H392.471V240.6ZM392.471 244.25V246.25H394.471V244.25H392.471ZM374.071 244.25V242.25H372.071V244.25H374.071ZM374.071 255.4H372.071V257.4H374.071V255.4ZM394.671 255.4H396.671V253.4H394.671V255.4ZM394.671 259V261H396.671V259H394.671ZM372.321 259V225.9H368.321V259H372.321ZM370.321 227.9H394.671V223.9H370.321V227.9ZM392.671 225.9V229.5H396.671V225.9H392.671ZM394.671 227.5H374.071V231.5H394.671V227.5ZM372.071 229.5V240.6H376.071V229.5H372.071ZM374.071 242.6H392.471V238.6H374.071V242.6ZM390.471 240.6V244.25H394.471V240.6H390.471ZM392.471 242.25H374.071V246.25H392.471V242.25ZM372.071 244.25V255.4H376.071V244.25H372.071ZM374.071 257.4H394.671V253.4H374.071V257.4ZM392.671 255.4V259H396.671V255.4H392.671ZM394.671 257H370.321V261H394.671V257ZM409.941 259H407.941V261H409.941V259ZM409.941 229.45H411.941V227.45H409.941V229.45ZM398.391 229.45H396.391V231.45H398.391V229.45ZM398.391 225.9V223.9H396.391V225.9H398.391ZM425.241 225.9H427.241V223.9H425.241V225.9ZM425.241 229.45V231.45H427.241V229.45H425.241ZM413.691 229.45V227.45H411.691V229.45H413.691ZM413.691 259V261H415.691V259H413.691ZM411.941 259V229.45H407.941V259H411.941ZM409.941 227.45H398.391V231.45H409.941V227.45ZM400.391 229.45V225.9H396.391V229.45H400.391ZM398.391 227.9H425.241V223.9H398.391V227.9ZM423.241 225.9V229.45H427.241V225.9H423.241ZM425.241 227.45H413.691V231.45H425.241V227.45ZM411.691 229.45V259H415.691V229.45H411.691ZM413.691 257H409.941V261H413.691V257ZM431.013 259H429.013V261H431.013V259ZM431.013 225.9V223.9H429.013V225.9H431.013ZM454.963 228.7L453.598 230.162L453.604 230.168L453.61 230.173L454.963 228.7ZM456.763 241.35L455.092 240.251L455.082 240.266L455.072 240.282L456.763 241.35ZM453.713 244.25L454.627 246.029L454.645 246.019L454.664 246.009L453.713 244.25ZM450.013 245.65L449.54 243.707L446.794 244.375L448.337 246.742L450.013 245.65ZM458.713 259V261H462.403L460.388 257.908L458.713 259ZM454.263 259L452.571 260.066L453.159 261H454.263V259ZM446.263 246.3L447.955 245.234L447.367 244.3H446.263V246.3ZM434.763 246.3V244.3H432.763V246.3H434.763ZM434.763 259V261H436.763V259H434.763ZM434.763 242.75H432.763V244.75H434.763V242.75ZM449.863 242.2L449.293 240.283L449.293 240.283L449.863 242.2ZM452.963 240.25L451.474 238.915L451.471 238.918L452.963 240.25ZM452.113 231.3L450.808 232.816L450.819 232.825L450.829 232.834L452.113 231.3ZM434.763 229.45V227.45H432.763V229.45H434.763ZM433.013 259V225.9H429.013V259H433.013ZM431.013 227.9H446.863V223.9H431.013V227.9ZM446.863 227.9C449.885 227.9 452.053 228.72 453.598 230.162L456.328 227.238C453.873 224.947 450.641 223.9 446.863 223.9V227.9ZM453.61 230.173C455.169 231.604 456.013 233.553 456.013 236.25H460.013C460.013 232.614 458.824 229.529 456.315 227.227L453.61 230.173ZM456.013 236.25C456.013 238.145 455.64 239.418 455.092 240.251L458.434 242.449C459.553 240.749 460.013 238.621 460.013 236.25H456.013ZM455.072 240.282C454.442 241.279 453.673 241.998 452.762 242.491L454.664 246.009C456.22 245.168 457.484 243.954 458.454 242.418L455.072 240.282ZM452.799 242.471C451.693 243.039 450.607 243.447 449.54 243.707L450.486 247.593C451.885 247.253 453.266 246.728 454.627 246.029L452.799 242.471ZM448.337 246.742L457.037 260.092L460.388 257.908L451.688 244.558L448.337 246.742ZM458.713 257H454.263V261H458.713V257ZM455.955 257.934L447.955 245.234L444.571 247.366L452.571 260.066L455.955 257.934ZM446.263 244.3H434.763V248.3H446.263V244.3ZM432.763 246.3V259H436.763V246.3H432.763ZM434.763 257H431.013V261H434.763V257ZM434.763 244.75H446.213V240.75H434.763V244.75ZM446.213 244.75C447.619 244.75 449.028 244.535 450.433 244.117L449.293 240.283C448.231 240.599 447.206 240.75 446.213 240.75V244.75ZM450.433 244.117C452.011 243.648 453.367 242.8 454.455 241.582L451.471 238.918C450.892 239.566 450.181 240.019 449.293 240.283L450.433 244.117ZM454.452 241.585C455.739 240.15 456.263 238.287 456.263 236.25H452.263C452.263 237.613 451.92 238.417 451.474 238.915L454.452 241.585ZM456.263 236.25C456.263 233.64 455.343 231.396 453.397 229.766L450.829 232.834C451.749 233.604 452.263 234.66 452.263 236.25H456.263ZM453.417 229.784C451.537 228.166 449.134 227.45 446.413 227.45V231.45C448.425 231.45 449.822 231.967 450.808 232.816L453.417 229.784ZM446.413 227.45H434.763V231.45H446.413V227.45ZM432.763 229.45V242.75H436.763V229.45H432.763ZM465.46 259H463.46V261H465.46V259ZM465.46 225.9V223.9H463.46V225.9H465.46ZM489.81 225.9H491.81V223.9H489.81V225.9ZM489.81 229.5V231.5H491.81V229.5H489.81ZM469.21 229.5V227.5H467.21V229.5H469.21ZM469.21 240.6H467.21V242.6H469.21V240.6ZM487.61 240.6H489.61V238.6H487.61V240.6ZM487.61 244.25V246.25H489.61V244.25H487.61ZM469.21 244.25V242.25H467.21V244.25H469.21ZM469.21 255.4H467.21V257.4H469.21V255.4ZM489.81 255.4H491.81V253.4H489.81V255.4ZM489.81 259V261H491.81V259H489.81ZM467.46 259V225.9H463.46V259H467.46ZM465.46 227.9H489.81V223.9H465.46V227.9ZM487.81 225.9V229.5H491.81V225.9H487.81ZM489.81 227.5H469.21V231.5H489.81V227.5ZM467.21 229.5V240.6H471.21V229.5H467.21ZM469.21 242.6H487.61V238.6H469.21V242.6ZM485.61 240.6V244.25H489.61V240.6H485.61ZM487.61 242.25H469.21V246.25H487.61V242.25ZM467.21 244.25V255.4H471.21V244.25H467.21ZM469.21 257.4H489.81V253.4H469.21V257.4ZM487.81 255.4V259H491.81V255.4H487.81ZM489.81 257H465.46V261H489.81V257ZM492.98 259L491.139 258.219L489.958 261H492.98V259ZM507.03 225.9V223.9H505.706L505.189 225.119L507.03 225.9ZM511.73 225.9L513.571 225.119L513.054 223.9H511.73V225.9ZM525.78 259V261H528.802L527.621 258.219L525.78 259ZM521.63 259L519.787 259.777L520.303 261H521.63V259ZM517.58 249.4L519.423 248.623L518.907 247.4H517.58V249.4ZM501.18 249.4V247.4H499.853L499.337 248.623L501.18 249.4ZM497.13 259V261H498.457L498.973 259.777L497.13 259ZM502.63 245.95L500.785 245.179L499.627 247.95H502.63V245.95ZM516.13 245.95V247.95H519.134L517.975 245.179L516.13 245.95ZM509.38 229.8L511.225 229.029L509.38 224.614L507.535 229.029L509.38 229.8ZM494.821 259.781L508.871 226.681L505.189 225.119L491.139 258.219L494.821 259.781ZM507.03 227.9H511.73V223.9H507.03V227.9ZM509.889 226.681L523.939 259.781L527.621 258.219L513.571 225.119L509.889 226.681ZM525.78 257H521.63V261H525.78V257ZM523.473 258.223L519.423 248.623L515.737 250.177L519.787 259.777L523.473 258.223ZM517.58 247.4H501.18V251.4H517.58V247.4ZM499.337 248.623L495.287 258.223L498.973 259.777L503.023 250.177L499.337 248.623ZM497.13 257H492.98V261H497.13V257ZM502.63 247.95H516.13V243.95H502.63V247.95ZM517.975 245.179L511.225 229.029L507.535 230.571L514.285 246.721L517.975 245.179ZM507.535 229.029L500.785 245.179L504.475 246.721L511.225 230.571L507.535 229.029ZM536.115 257.6L535.102 259.325L535.118 259.334L535.134 259.343L536.115 257.6ZM531.165 252.45L529.409 253.408L529.409 253.408L531.165 252.45ZM529.365 225.9V223.9H527.365V225.9H529.365ZM533.115 225.9H535.115V223.9H533.115V225.9ZM534.565 251.1L532.853 252.134L532.861 252.147L532.869 252.16L534.565 251.1ZM538.415 254.65L537.536 256.446L537.558 256.458L537.582 256.468L538.415 254.65ZM548.415 254.65L549.263 256.461L549.278 256.454L549.294 256.446L548.415 254.65ZM552.265 251.1L550.569 250.04L550.569 250.04L552.265 251.1ZM553.765 225.9V223.9H551.765V225.9H553.765ZM557.515 225.9H559.515V223.9H557.515V225.9ZM555.715 252.4L557.471 253.358L557.471 253.358L555.715 252.4ZM550.715 257.55L549.714 255.818L549.702 255.825L550.715 257.55ZM543.415 257.4C540.984 257.4 538.896 256.869 537.095 255.857L535.134 259.343C537.601 260.731 540.379 261.4 543.415 261.4V257.4ZM537.128 255.875C535.35 254.831 533.952 253.384 532.921 251.492L529.409 253.408C530.777 255.916 532.68 257.902 535.102 259.325L537.128 255.875ZM532.921 251.492C531.906 249.633 531.365 247.406 531.365 244.75H527.365C527.365 247.961 528.023 250.867 529.409 253.408L532.921 251.492ZM531.365 244.75V225.9H527.365V244.75H531.365ZM529.365 227.9H533.115V223.9H529.365V227.9ZM531.115 225.9V244.85H535.115V225.9H531.115ZM531.115 244.85C531.115 247.651 531.64 250.127 532.853 252.134L536.277 250.066C535.556 248.873 535.115 247.183 535.115 244.85H531.115ZM532.869 252.16C534.05 254.05 535.606 255.502 537.536 256.446L539.294 252.854C538.09 252.265 537.08 251.35 536.261 250.04L532.869 252.16ZM537.582 256.468C539.439 257.319 541.389 257.75 543.415 257.75V253.75C541.974 253.75 540.591 253.447 539.248 252.832L537.582 256.468ZM543.415 257.75C545.468 257.75 547.425 257.322 549.263 256.461L547.567 252.839C546.271 253.445 544.895 253.75 543.415 253.75V257.75ZM549.294 256.446C551.224 255.502 552.78 254.05 553.961 252.16L550.569 250.04C549.75 251.35 548.739 252.265 547.536 252.854L549.294 256.446ZM553.961 252.16C555.219 250.147 555.765 247.661 555.765 244.85H551.765C551.765 247.172 551.311 248.853 550.569 250.04L553.961 252.16ZM555.765 244.85V225.9H551.765V244.85H555.765ZM553.765 227.9H557.515V223.9H553.765V227.9ZM555.515 225.9V244.75H559.515V225.9H555.515ZM555.515 244.75C555.515 247.368 554.975 249.579 553.959 251.442L557.471 253.358C558.854 250.821 559.515 247.932 559.515 244.75H555.515ZM553.959 251.442C552.932 253.326 551.524 254.772 549.714 255.819L551.716 259.281C554.173 257.861 556.098 255.874 557.471 253.358L553.959 251.442ZM549.702 255.825C547.949 256.855 545.875 257.4 543.415 257.4V261.4C546.488 261.4 549.281 260.712 551.728 259.275L549.702 255.825ZM566.214 259H564.214V261H566.214V259ZM566.214 225.9V223.9H564.214V225.9H566.214ZM569.964 225.9H571.964V223.9H569.964V225.9ZM569.964 255.4H567.964V257.4H569.964V255.4ZM588.014 255.4H590.014V253.4H588.014V255.4ZM588.014 259V261H590.014V259H588.014ZM568.214 259V225.9H564.214V259H568.214ZM566.214 227.9H569.964V223.9H566.214V227.9ZM567.964 225.9V255.4H571.964V225.9H567.964ZM569.964 257.4H588.014V253.4H569.964V257.4ZM586.014 255.4V259H590.014V255.4H586.014ZM588.014 257H566.214V261H588.014V257ZM596.703 259H594.703V261H596.703V259ZM596.703 229.45H598.703V227.45H596.703V229.45ZM585.153 229.45H583.153V231.45H585.153V229.45ZM585.153 225.9V223.9H583.153V225.9H585.153ZM612.003 225.9H614.003V223.9H612.003V225.9ZM612.003 229.45V231.45H614.003V229.45H612.003ZM600.453 229.45V227.45H598.453V229.45H600.453ZM600.453 259V261H602.453V259H600.453ZM598.703 259V229.45H594.703V259H598.703ZM596.703 227.45H585.153V231.45H596.703V227.45ZM587.153 229.45V225.9H583.153V229.45H587.153ZM585.153 227.9H612.003V223.9H585.153V227.9ZM610.003 225.9V229.45H614.003V225.9H610.003ZM612.003 227.45H600.453V231.45H612.003V227.45ZM598.453 229.45V259H602.453V229.45H598.453ZM600.453 257H596.703V261H600.453V257Z" fill="#F4B860"/>
<rect width="60" height="7" transform="matrix(1 0 0 -1 337 291)" fill="#C83E4D"/>
</svg>
