<svg width="1738" height="914" viewBox="0 0 1738 914" fill="none" xmlns="http://www.w3.org/2000/svg">
<rect width="1738" height="914" fill="#F4B860"/>
<path d="M674.58 463.665C676.5 464.115 677.985 465.045 679.035 466.455C680.115 467.835 680.655 469.44 680.655 471.27C680.655 474.06 679.725 476.22 677.865 477.75C676.035 479.25 673.395 480 669.945 480H653.25V448.14H669.495C672.735 448.14 675.285 448.845 677.145 450.255C679.005 451.665 679.935 453.72 679.935 456.42C679.935 458.28 679.44 459.855 678.45 461.145C677.49 462.405 676.2 463.245 674.58 463.665ZM663.24 460.56H667.11C668.01 460.56 668.67 460.38 669.09 460.02C669.54 459.66 669.765 459.105 669.765 458.355C669.765 457.575 669.54 457.005 669.09 456.645C668.67 456.255 668.01 456.06 667.11 456.06H663.24V460.56ZM667.785 471.99C668.685 471.99 669.345 471.825 669.765 471.495C670.215 471.135 670.44 470.565 670.44 469.785C670.44 468.255 669.555 467.49 667.785 467.49H663.24V471.99H667.785ZM700.032 480L694.047 468.57H694.002V480H684.012V448.14H698.862C701.442 448.14 703.647 448.605 705.477 449.535C707.307 450.435 708.672 451.68 709.572 453.27C710.502 454.83 710.967 456.6 710.967 458.58C710.967 460.71 710.367 462.6 709.167 464.25C707.997 465.9 706.302 467.085 704.082 467.805L711.012 480H700.032ZM694.002 461.91H697.962C698.922 461.91 699.642 461.7 700.122 461.28C700.602 460.83 700.842 460.14 700.842 459.21C700.842 458.37 700.587 457.71 700.077 457.23C699.597 456.75 698.892 456.51 697.962 456.51H694.002V461.91ZM729.683 480.315C726.683 480.315 723.923 479.61 721.403 478.2C718.913 476.79 716.933 474.84 715.463 472.35C713.993 469.86 713.258 467.055 713.258 463.935C713.258 460.815 713.993 458.01 715.463 455.52C716.933 453.03 718.913 451.095 721.403 449.715C723.923 448.305 726.683 447.6 729.683 447.6C732.683 447.6 735.428 448.305 737.918 449.715C740.408 451.095 742.373 453.03 743.813 455.52C745.283 458.01 746.018 460.815 746.018 463.935C746.018 467.055 745.283 469.86 743.813 472.35C742.373 474.84 740.393 476.79 737.873 478.2C735.383 479.61 732.653 480.315 729.683 480.315ZM729.683 471C731.663 471 733.193 470.37 734.273 469.11C735.353 467.82 735.893 466.095 735.893 463.935C735.893 461.745 735.353 460.02 734.273 458.76C733.193 457.47 731.663 456.825 729.683 456.825C727.673 456.825 726.128 457.47 725.048 458.76C723.968 460.02 723.428 461.745 723.428 463.935C723.428 466.095 723.968 467.82 725.048 469.11C726.128 470.37 727.673 471 729.683 471ZM762.897 448.14C766.227 448.14 769.137 448.815 771.627 450.165C774.147 451.515 776.082 453.39 777.432 455.79C778.782 458.19 779.457 460.92 779.457 463.98C779.457 467.01 778.782 469.74 777.432 472.17C776.082 474.6 774.147 476.52 771.627 477.93C769.137 479.31 766.227 480 762.897 480H749.622V448.14H762.897ZM761.997 471.09C764.247 471.09 766.032 470.475 767.352 469.245C768.672 468.015 769.332 466.26 769.332 463.98C769.332 461.7 768.672 459.945 767.352 458.715C766.032 457.485 764.247 456.87 761.997 456.87H759.612V471.09H761.997ZM813.664 448.14L802.234 470.325V480H792.244V470.325L780.814 448.14H792.244L797.329 459.435L802.414 448.14H813.664ZM848.602 448.14V456.06H840.142V480H830.152V456.06H821.782V448.14H848.602ZM861.302 456.105V460.02H871.202V467.535H861.302V472.035H872.552V480H851.312V448.14H872.552V456.105H861.302ZM901.336 448.14V456.06H892.876V480H882.886V456.06H874.516V448.14H901.336ZM920.066 480L914.081 468.57H914.036V480H904.046V448.14H918.896C921.476 448.14 923.681 448.605 925.511 449.535C927.341 450.435 928.706 451.68 929.606 453.27C930.536 454.83 931.001 456.6 931.001 458.58C931.001 460.71 930.401 462.6 929.201 464.25C928.031 465.9 926.336 467.085 924.116 467.805L931.046 480H920.066ZM914.036 461.91H917.996C918.956 461.91 919.676 461.7 920.156 461.28C920.636 460.83 920.876 460.14 920.876 459.21C920.876 458.37 920.621 457.71 920.111 457.23C919.631 456.75 918.926 456.51 917.996 456.51H914.036V461.91ZM944.182 456.105V460.02H954.082V467.535H944.182V472.035H955.432V480H934.192V448.14H955.432V456.105H944.182ZM979.627 475.185H969.007L967.432 480H956.947L968.602 448.14H980.122L991.732 480H981.202L979.627 475.185ZM977.197 467.67L974.317 458.805L971.437 467.67H977.197ZM1003.77 448.14V466.095C1003.77 467.565 1004.08 468.735 1004.71 469.605C1005.37 470.445 1006.42 470.865 1007.86 470.865C1009.3 470.865 1010.37 470.445 1011.06 469.605C1011.75 468.735 1012.09 467.565 1012.09 466.095V448.14H1022.04V466.095C1022.04 469.125 1021.41 471.72 1020.15 473.88C1018.89 476.01 1017.16 477.615 1014.97 478.695C1012.78 479.775 1010.34 480.315 1007.64 480.315C1004.94 480.315 1002.54 479.775 1000.44 478.695C998.367 477.615 996.747 476.01 995.577 473.88C994.407 471.75 993.822 469.155 993.822 466.095V448.14H1003.77ZM1036.34 472.44H1045.97V480H1026.35V448.14H1036.34V472.44ZM1074.13 448.14V456.06H1065.67V480H1055.68V456.06H1047.31V448.14H1074.13Z" fill="#C83E4D"/>
</svg>
