<svg width="707" height="419" viewBox="0 0 707 419" fill="none" xmlns="http://www.w3.org/2000/svg">
<path d="M707 0H0V419H707V0Z" fill="#332D47"/>
<rect x="65" y="50" width="176" height="264" rx="9" fill="#282337"/>
<rect x="40" y="233" width="101" height="101" rx="50.5" fill="#F4B860"/>
<path d="M341.05 207V173.9H355.9C358.5 173.9 360.55 174.35 362.05 175.25C363.583 176.15 364.683 177.283 365.35 178.65C366.017 179.983 366.35 181.317 366.35 182.65C366.35 184.783 365.9 186.433 365 187.6C364.1 188.733 363.067 189.567 361.9 190.1C362.833 190.4 363.767 190.883 364.7 191.55C365.667 192.183 366.467 193.05 367.1 194.15C367.733 195.25 368.05 196.633 368.05 198.3C368.05 200.767 367.1 202.833 365.2 204.5C363.333 206.167 360.517 207 356.75 207H341.05ZM344.8 188.7H355.9C357.067 188.7 358.15 188.5 359.15 188.1C360.183 187.7 361.017 187.083 361.65 186.25C362.283 185.383 362.6 184.283 362.6 182.95C362.6 182.017 362.383 181.133 361.95 180.3C361.55 179.467 360.883 178.783 359.95 178.25C359.05 177.717 357.833 177.45 356.3 177.45H344.8V188.7ZM344.8 203.45H357.15C359.417 203.45 361.167 202.983 362.4 202.05C363.667 201.083 364.3 199.733 364.3 198C364.3 196.433 363.7 195.067 362.5 193.9C361.3 192.7 359.383 192.1 356.75 192.1H344.8V203.45ZM375.155 207V173.9H391.005C394.405 173.9 397.105 174.833 399.105 176.7C401.139 178.567 402.155 181.083 402.155 184.25C402.155 186.383 401.739 188.083 400.905 189.35C400.105 190.617 399.089 191.583 397.855 192.25C396.622 192.883 395.389 193.35 394.155 193.65L402.855 207H398.405L390.405 194.3H378.905V207H375.155ZM378.905 190.75H390.355C391.555 190.75 392.772 190.567 394.005 190.2C395.239 189.833 396.272 189.183 397.105 188.25C397.972 187.283 398.405 185.95 398.405 184.25C398.405 182.15 397.689 180.5 396.255 179.3C394.822 178.067 392.922 177.45 390.555 177.45H378.905V190.75ZM424.303 207.4C421.803 207.4 419.519 206.967 417.453 206.1C415.386 205.233 413.603 204.017 412.103 202.45C410.636 200.883 409.503 199.083 408.703 197.05C407.903 194.983 407.503 192.783 407.503 190.45C407.503 188.083 407.903 185.883 408.703 183.85C409.503 181.817 410.636 180.017 412.103 178.45C413.603 176.883 415.386 175.667 417.453 174.8C419.519 173.933 421.803 173.5 424.303 173.5C426.803 173.5 429.086 173.933 431.153 174.8C433.219 175.667 434.986 176.883 436.453 178.45C437.953 180.017 439.103 181.817 439.903 183.85C440.703 185.883 441.103 188.083 441.103 190.45C441.103 192.783 440.703 194.983 439.903 197.05C439.103 199.083 437.953 200.883 436.453 202.45C434.986 204.017 433.219 205.233 431.153 206.1C429.086 206.967 426.803 207.4 424.303 207.4ZM424.303 203.75C427.003 203.75 429.319 203.167 431.253 202C433.219 200.8 434.719 199.2 435.753 197.2C436.819 195.167 437.353 192.917 437.353 190.45C437.353 187.95 436.819 185.7 435.753 183.7C434.719 181.7 433.219 180.117 431.253 178.95C429.319 177.75 427.003 177.15 424.303 177.15C421.636 177.15 419.319 177.75 417.353 178.95C415.386 180.117 413.869 181.7 412.803 183.7C411.769 185.7 411.253 187.95 411.253 190.45C411.253 192.917 411.769 195.167 412.803 197.2C413.869 199.2 415.386 200.8 417.353 202C419.319 203.167 421.636 203.75 424.303 203.75ZM448.103 207V173.9H462.053C464.019 173.9 465.903 174.283 467.703 175.05C469.536 175.783 471.169 176.867 472.603 178.3C474.036 179.733 475.169 181.467 476.003 183.5C476.836 185.533 477.253 187.85 477.253 190.45C477.253 193.05 476.836 195.367 476.003 197.4C475.169 199.433 474.036 201.167 472.603 202.6C471.169 204.033 469.536 205.133 467.703 205.9C465.903 206.633 464.019 207 462.053 207H448.103ZM451.853 203.45H461.903C464.269 203.45 466.319 202.85 468.053 201.65C469.786 200.45 471.119 198.867 472.053 196.9C473.019 194.933 473.503 192.783 473.503 190.45C473.503 188.083 473.019 185.917 472.053 183.95C471.119 181.983 469.786 180.417 468.053 179.25C466.319 178.05 464.269 177.45 461.903 177.45H451.853V203.45ZM492.501 207V193.9L478.601 173.9H483.151L494.351 190L505.551 173.9H510.101L496.251 193.9V207H492.501ZM349.25 259V229.45H337.7V225.9H364.55V229.45H353V259H349.25ZM370.321 259V225.9H394.671V229.5H374.071V240.6H392.471V244.25H374.071V255.4H394.671V259H370.321ZM409.941 259V229.45H398.391V225.9H425.241V229.45H413.691V259H409.941ZM431.013 259V225.9H446.863C450.263 225.9 452.963 226.833 454.963 228.7C456.996 230.567 458.013 233.083 458.013 236.25C458.013 238.383 457.596 240.083 456.763 241.35C455.963 242.617 454.946 243.583 453.713 244.25C452.48 244.883 451.246 245.35 450.013 245.65L458.713 259H454.263L446.263 246.3H434.763V259H431.013ZM434.763 242.75H446.213C447.413 242.75 448.63 242.567 449.863 242.2C451.096 241.833 452.13 241.183 452.963 240.25C453.83 239.283 454.263 237.95 454.263 236.25C454.263 234.15 453.546 232.5 452.113 231.3C450.68 230.067 448.78 229.45 446.413 229.45H434.763V242.75ZM465.46 259V225.9H489.81V229.5H469.21V240.6H487.61V244.25H469.21V255.4H489.81V259H465.46ZM492.98 259L507.03 225.9H511.73L525.78 259H521.63L517.58 249.4H501.18L497.13 259H492.98ZM502.63 245.95H516.13L509.38 229.8L502.63 245.95ZM543.415 259.4C540.682 259.4 538.248 258.8 536.115 257.6C534.015 256.367 532.365 254.65 531.165 252.45C529.965 250.25 529.365 247.683 529.365 244.75V225.9H533.115V244.85C533.115 247.417 533.598 249.5 534.565 251.1C535.565 252.7 536.848 253.883 538.415 254.65C540.015 255.383 541.682 255.75 543.415 255.75C545.182 255.75 546.848 255.383 548.415 254.65C549.982 253.883 551.265 252.7 552.265 251.1C553.265 249.5 553.765 247.417 553.765 244.85V225.9H557.515V244.75C557.515 247.65 556.915 250.2 555.715 252.4C554.515 254.6 552.848 256.317 550.715 257.55C548.615 258.783 546.182 259.4 543.415 259.4ZM566.214 259V225.9H569.964V255.4H588.014V259H566.214ZM596.703 259V229.45H585.153V225.9H612.003V229.45H600.453V259H596.703Z" fill="#F4B860"/>
<rect width="60" height="7" transform="matrix(1 0 0 -1 337 291)" fill="#C83E4D"/>
</svg>
