<svg width="707" height="419" viewBox="0 0 707 419" fill="none" xmlns="http://www.w3.org/2000/svg">
<path d="M707 0H0V419H707V0Z" fill="#332D47"/>
<path d="M323.05 284V250.9H346.95V254.5H326.8V266H344.75V269.65H326.8V284H323.05ZM367.9 284.4C365.4 284.4 363.117 283.967 361.05 283.1C358.984 282.233 357.2 281.017 355.7 279.45C354.234 277.883 353.1 276.083 352.3 274.05C351.5 271.983 351.1 269.783 351.1 267.45C351.1 265.083 351.5 262.883 352.3 260.85C353.1 258.817 354.234 257.017 355.7 255.45C357.2 253.883 358.984 252.667 361.05 251.8C363.117 250.933 365.4 250.5 367.9 250.5C370.4 250.5 372.684 250.933 374.75 251.8C376.817 252.667 378.584 253.883 380.05 255.45C381.55 257.017 382.7 258.817 383.5 260.85C384.3 262.883 384.7 265.083 384.7 267.45C384.7 269.783 384.3 271.983 383.5 274.05C382.7 276.083 381.55 277.883 380.05 279.45C378.584 281.017 376.817 282.233 374.75 283.1C372.684 283.967 370.4 284.4 367.9 284.4ZM367.9 280.75C370.6 280.75 372.917 280.167 374.85 279C376.817 277.8 378.317 276.2 379.35 274.2C380.417 272.167 380.95 269.917 380.95 267.45C380.95 264.95 380.417 262.7 379.35 260.7C378.317 258.7 376.817 257.117 374.85 255.95C372.917 254.75 370.6 254.15 367.9 254.15C365.234 254.15 362.917 254.75 360.95 255.95C358.984 257.117 357.467 258.7 356.4 260.7C355.367 262.7 354.85 264.95 354.85 267.45C354.85 269.917 355.367 272.167 356.4 274.2C357.467 276.2 358.984 277.8 360.95 279C362.917 280.167 365.234 280.75 367.9 280.75ZM391.7 284V250.9H407.55C410.95 250.9 413.65 251.833 415.65 253.7C417.684 255.567 418.7 258.083 418.7 261.25C418.7 263.383 418.284 265.083 417.45 266.35C416.65 267.617 415.634 268.583 414.4 269.25C413.167 269.883 411.934 270.35 410.7 270.65L419.4 284H414.95L406.95 271.3H395.45V284H391.7ZM395.45 267.75H406.9C408.1 267.75 409.317 267.567 410.55 267.2C411.784 266.833 412.817 266.183 413.65 265.25C414.517 264.283 414.95 262.95 414.95 261.25C414.95 259.15 414.234 257.5 412.8 256.3C411.367 255.067 409.467 254.45 407.1 254.45H395.45V267.75ZM426.148 284V250.9H430.498L442.348 266.6L453.998 250.9H458.348V284H454.598V256.6L442.348 272.35L429.898 256.6V284H426.148ZM463.531 284L477.581 250.9H482.281L496.331 284H492.181L488.131 274.4H471.731L467.681 284H463.531ZM473.181 270.95H486.681L479.931 254.8L473.181 270.95ZM501.536 284V250.9H505.286V280.4H523.336V284H501.536Z" fill="#F4B860"/>
<path d="M323.05 284H321.05V286H323.05V284ZM323.05 250.9V248.9H321.05V250.9H323.05ZM346.95 250.9H348.95V248.9H346.95V250.9ZM346.95 254.5V256.5H348.95V254.5H346.95ZM326.8 254.5V252.5H324.8V254.5H326.8ZM326.8 266H324.8V268H326.8V266ZM344.75 266H346.75V264H344.75V266ZM344.75 269.65V271.65H346.75V269.65H344.75ZM326.8 269.65V267.65H324.8V269.65H326.8ZM326.8 284V286H328.8V284H326.8ZM325.05 284V250.9H321.05V284H325.05ZM323.05 252.9H346.95V248.9H323.05V252.9ZM344.95 250.9V254.5H348.95V250.9H344.95ZM346.95 252.5H326.8V256.5H346.95V252.5ZM324.8 254.5V266H328.8V254.5H324.8ZM326.8 268H344.75V264H326.8V268ZM342.75 266V269.65H346.75V266H342.75ZM344.75 267.65H326.8V271.65H344.75V267.65ZM324.8 269.65V284H328.8V269.65H324.8ZM326.8 282H323.05V286H326.8V282ZM361.05 283.1L360.277 284.944H360.277L361.05 283.1ZM355.7 279.45L354.24 280.817L354.248 280.825L354.256 280.833L355.7 279.45ZM352.3 274.05L350.435 274.772L350.439 274.782L352.3 274.05ZM352.3 260.85L350.439 260.118L352.3 260.85ZM355.7 255.45L354.256 254.067L354.248 254.075L354.24 254.083L355.7 255.45ZM361.05 251.8L360.277 249.956L360.277 249.956L361.05 251.8ZM374.75 251.8L375.524 249.956V249.956L374.75 251.8ZM380.05 255.45L378.59 256.817L378.598 256.825L378.606 256.833L380.05 255.45ZM383.5 274.05L385.362 274.782L385.366 274.772L383.5 274.05ZM380.05 279.45L378.606 278.067L378.598 278.075L378.59 278.083L380.05 279.45ZM374.75 283.1L375.524 284.944L374.75 283.1ZM374.85 279L375.884 280.712L375.892 280.707L374.85 279ZM379.35 274.2L377.579 273.271L377.574 273.282L379.35 274.2ZM379.35 260.7L377.574 261.618L377.58 261.63L377.586 261.641L379.35 260.7ZM374.85 255.95L373.796 257.649L373.813 257.66L373.83 257.67L374.85 255.95ZM360.95 255.95L361.971 257.67L361.981 257.664L361.992 257.657L360.95 255.95ZM356.4 260.7L354.636 259.759L354.63 259.77L354.624 259.782L356.4 260.7ZM356.4 274.2L354.617 275.106L354.626 275.124L354.636 275.141L356.4 274.2ZM360.95 279L359.909 280.707L359.919 280.714L359.93 280.72L360.95 279ZM367.9 282.4C365.635 282.4 363.619 282.008 361.824 281.256L360.277 284.944C362.615 285.925 365.166 286.4 367.9 286.4V282.4ZM361.824 281.256C360.002 280.491 358.449 279.429 357.145 278.067L354.256 280.833C355.952 282.605 357.966 283.975 360.277 284.944L361.824 281.256ZM357.16 278.083C355.869 276.704 354.871 275.12 354.162 273.318L350.439 274.782C351.33 277.046 352.598 279.062 354.24 280.817L357.16 278.083ZM354.166 273.328C353.459 271.504 353.1 269.55 353.1 267.45H349.1C349.1 270.017 349.541 272.463 350.435 274.772L354.166 273.328ZM353.1 267.45C353.1 265.313 353.461 263.364 354.162 261.582L350.439 260.118C349.54 262.403 349.1 264.854 349.1 267.45H353.1ZM354.162 261.582C354.871 259.78 355.869 258.196 357.16 256.817L354.24 254.083C352.598 255.838 351.33 257.854 350.439 260.118L354.162 261.582ZM357.145 256.833C358.449 255.471 360.002 254.409 361.824 253.644L360.277 249.956C357.966 250.925 355.952 252.295 354.256 254.067L357.145 256.833ZM361.824 253.644C363.619 252.892 365.635 252.5 367.9 252.5V248.5C365.166 248.5 362.615 248.975 360.277 249.956L361.824 253.644ZM367.9 252.5C370.166 252.5 372.182 252.892 373.977 253.644L375.524 249.956C373.185 248.975 370.635 248.5 367.9 248.5V252.5ZM373.977 253.644C375.795 254.407 377.325 255.465 378.59 256.817L381.51 254.083C379.843 252.302 377.839 250.926 375.524 249.956L373.977 253.644ZM378.606 256.833C379.925 258.211 380.934 259.789 381.639 261.582L385.362 260.118C384.467 257.844 383.176 255.823 381.495 254.067L378.606 256.833ZM381.639 261.582C382.34 263.364 382.7 265.313 382.7 267.45H386.7C386.7 264.854 386.261 262.403 385.362 260.118L381.639 261.582ZM382.7 267.45C382.7 269.55 382.341 271.504 381.635 273.328L385.366 274.772C386.259 272.463 386.7 270.017 386.7 267.45H382.7ZM381.639 273.318C380.934 275.111 379.925 276.689 378.606 278.067L381.495 280.833C383.176 279.077 384.467 277.056 385.362 274.782L381.639 273.318ZM378.59 278.083C377.325 279.435 375.795 280.493 373.977 281.256L375.524 284.944C377.839 283.974 379.843 282.598 381.51 280.817L378.59 278.083ZM373.977 281.256C372.182 282.008 370.166 282.4 367.9 282.4V286.4C370.635 286.4 373.185 285.925 375.524 284.944L373.977 281.256ZM367.9 282.75C370.893 282.75 373.582 282.101 375.884 280.712L373.817 277.288C372.252 278.232 370.308 278.75 367.9 278.75V282.75ZM375.892 280.707C378.164 279.321 379.922 277.451 381.127 275.118L377.574 273.282C376.712 274.949 375.47 276.279 373.809 277.293L375.892 280.707ZM381.121 275.129C382.35 272.788 382.95 270.216 382.95 267.45H378.95C378.95 269.618 378.485 271.545 377.579 273.271L381.121 275.129ZM382.95 267.45C382.95 264.656 382.352 262.077 381.115 259.759L377.586 261.641C378.482 263.323 378.95 265.244 378.95 267.45H382.95ZM381.127 259.782C379.919 257.444 378.154 255.585 375.871 254.23L373.83 257.67C375.48 258.649 376.715 259.956 377.574 261.618L381.127 259.782ZM375.905 254.251C373.6 252.82 370.903 252.15 367.9 252.15V256.15C370.298 256.15 372.234 256.68 373.796 257.649L375.905 254.251ZM367.9 252.15C364.925 252.15 362.236 252.823 359.909 254.243L361.992 257.657C363.598 256.677 365.542 256.15 367.9 256.15V252.15ZM359.93 254.23C357.652 255.581 355.876 257.433 354.636 259.759L358.165 261.641C359.058 259.967 360.316 258.652 361.971 257.67L359.93 254.23ZM354.624 259.782C353.428 262.096 352.85 264.666 352.85 267.45H356.85C356.85 265.234 357.306 263.304 358.177 261.618L354.624 259.782ZM352.85 267.45C352.85 270.205 353.43 272.77 354.617 275.106L358.183 273.294C357.304 271.564 356.85 269.628 356.85 267.45H352.85ZM354.636 275.141C355.873 277.462 357.642 279.324 359.909 280.707L361.992 277.293C360.325 276.276 359.061 274.938 358.165 273.259L354.636 275.141ZM359.93 280.72C362.254 282.099 364.935 282.75 367.9 282.75V278.75C365.532 278.75 363.581 278.235 361.971 277.28L359.93 280.72ZM391.7 284H389.7V286H391.7V284ZM391.7 250.9V248.9H389.7V250.9H391.7ZM415.65 253.7L414.286 255.162L414.292 255.168L414.298 255.173L415.65 253.7ZM417.45 266.35L415.78 265.251L415.769 265.266L415.759 265.282L417.45 266.35ZM414.4 269.25L415.314 271.029L415.333 271.019L415.351 271.009L414.4 269.25ZM410.7 270.65L410.228 268.707L407.482 269.375L409.025 271.742L410.7 270.65ZM419.4 284V286H423.091L421.076 282.908L419.4 284ZM414.95 284L413.258 285.066L413.847 286H414.95V284ZM406.95 271.3L408.643 270.234L408.054 269.3H406.95V271.3ZM395.45 271.3V269.3H393.45V271.3H395.45ZM395.45 284V286H397.45V284H395.45ZM395.45 267.75H393.45V269.75H395.45V267.75ZM410.55 267.2L409.98 265.283L410.55 267.2ZM413.65 265.25L412.161 263.915L412.159 263.918L413.65 265.25ZM412.8 256.3L411.496 257.816L411.506 257.825L411.517 257.834L412.8 256.3ZM395.45 254.45V252.45H393.45V254.45H395.45ZM393.7 284V250.9H389.7V284H393.7ZM391.7 252.9H407.55V248.9H391.7V252.9ZM407.55 252.9C410.573 252.9 412.741 253.72 414.286 255.162L417.015 252.238C414.56 249.947 411.328 248.9 407.55 248.9V252.9ZM414.298 255.173C415.856 256.604 416.7 258.553 416.7 261.25H420.7C420.7 257.614 419.511 254.529 417.003 252.227L414.298 255.173ZM416.7 261.25C416.7 263.145 416.327 264.418 415.78 265.251L419.121 267.449C420.24 265.749 420.7 263.621 420.7 261.25H416.7ZM415.759 265.282C415.13 266.279 414.36 266.998 413.449 267.491L415.351 271.009C416.907 270.168 418.171 268.954 419.141 267.418L415.759 265.282ZM413.487 267.471C412.381 268.039 411.295 268.447 410.228 268.707L411.173 272.593C412.573 272.253 413.953 271.728 415.314 271.029L413.487 267.471ZM409.025 271.742L417.725 285.092L421.076 282.908L412.376 269.558L409.025 271.742ZM419.4 282H414.95V286H419.4V282ZM416.643 282.934L408.643 270.234L405.258 272.366L413.258 285.066L416.643 282.934ZM406.95 269.3H395.45V273.3H406.95V269.3ZM393.45 271.3V284H397.45V271.3H393.45ZM395.45 282H391.7V286H395.45V282ZM395.45 269.75H406.9V265.75H395.45V269.75ZM406.9 269.75C408.307 269.75 409.715 269.535 411.12 269.117L409.98 265.283C408.919 265.599 407.894 265.75 406.9 265.75V269.75ZM411.12 269.117C412.699 268.648 414.055 267.8 415.142 266.582L412.159 263.918C411.58 264.566 410.869 265.019 409.98 265.283L411.12 269.117ZM415.14 266.585C416.426 265.15 416.95 263.287 416.95 261.25H412.95C412.95 262.613 412.608 263.417 412.161 263.915L415.14 266.585ZM416.95 261.25C416.95 258.64 416.031 256.396 414.084 254.766L411.517 257.834C412.437 258.604 412.95 259.66 412.95 261.25H416.95ZM414.105 254.784C412.224 253.166 409.821 252.45 407.1 252.45V256.45C409.113 256.45 410.51 256.967 411.496 257.816L414.105 254.784ZM407.1 252.45H395.45V256.45H407.1V252.45ZM393.45 254.45V267.75H397.45V254.45H393.45ZM426.148 284H424.148V286H426.148V284ZM426.148 250.9V248.9H424.148V250.9H426.148ZM430.498 250.9L432.094 249.695L431.494 248.9H430.498V250.9ZM442.348 266.6L440.751 267.805L442.361 269.938L443.954 267.792L442.348 266.6ZM453.998 250.9V248.9H452.991L452.392 249.708L453.998 250.9ZM458.348 250.9H460.348V248.9H458.348V250.9ZM458.348 284V286H460.348V284H458.348ZM454.598 284H452.598V286H454.598V284ZM454.598 256.6H456.598V250.771L453.019 255.372L454.598 256.6ZM442.348 272.35L440.779 273.59L442.36 275.591L443.926 273.578L442.348 272.35ZM429.898 256.6L431.467 255.36L427.898 250.845V256.6H429.898ZM429.898 284V286H431.898V284H429.898ZM428.148 284V250.9H424.148V284H428.148ZM426.148 252.9H430.498V248.9H426.148V252.9ZM428.901 252.105L440.751 267.805L443.944 265.395L432.094 249.695L428.901 252.105ZM443.954 267.792L455.604 252.092L452.392 249.708L440.742 265.408L443.954 267.792ZM453.998 252.9H458.348V248.9H453.998V252.9ZM456.348 250.9V284H460.348V250.9H456.348ZM458.348 282H454.598V286H458.348V282ZM456.598 284V256.6H452.598V284H456.598ZM453.019 255.372L440.769 271.122L443.926 273.578L456.176 257.828L453.019 255.372ZM443.917 271.11L431.467 255.36L428.329 257.84L440.779 273.59L443.917 271.11ZM427.898 256.6V284H431.898V256.6H427.898ZM429.898 282H426.148V286H429.898V282ZM463.531 284L461.69 283.219L460.509 286H463.531V284ZM477.581 250.9V248.9H476.257L475.74 250.119L477.581 250.9ZM482.281 250.9L484.122 250.119L483.605 248.9H482.281V250.9ZM496.331 284V286H499.353L498.172 283.219L496.331 284ZM492.181 284L490.338 284.777L490.854 286H492.181V284ZM488.131 274.4L489.974 273.623L489.458 272.4H488.131V274.4ZM471.731 274.4V272.4H470.404L469.888 273.623L471.731 274.4ZM467.681 284V286H469.008L469.524 284.777L467.681 284ZM473.181 270.95L471.336 270.179L470.177 272.95H473.181V270.95ZM486.681 270.95V272.95H489.684L488.526 270.179L486.681 270.95ZM479.931 254.8L481.776 254.029L479.931 249.614L478.086 254.029L479.931 254.8ZM465.372 284.781L479.422 251.681L475.74 250.119L461.69 283.219L465.372 284.781ZM477.581 252.9H482.281V248.9H477.581V252.9ZM480.44 251.681L494.49 284.781L498.172 283.219L484.122 250.119L480.44 251.681ZM496.331 282H492.181V286H496.331V282ZM494.024 283.223L489.974 273.623L486.288 275.177L490.338 284.777L494.024 283.223ZM488.131 272.4H471.731V276.4H488.131V272.4ZM469.888 273.623L465.838 283.223L469.524 284.777L473.574 275.177L469.888 273.623ZM467.681 282H463.531V286H467.681V282ZM473.181 272.95H486.681V268.95H473.181V272.95ZM488.526 270.179L481.776 254.029L478.086 255.571L484.836 271.721L488.526 270.179ZM478.086 254.029L471.336 270.179L475.026 271.721L481.776 255.571L478.086 254.029ZM501.536 284H499.536V286H501.536V284ZM501.536 250.9V248.9H499.536V250.9H501.536ZM505.286 250.9H507.286V248.9H505.286V250.9ZM505.286 280.4H503.286V282.4H505.286V280.4ZM523.336 280.4H525.336V278.4H523.336V280.4ZM523.336 284V286H525.336V284H523.336ZM503.536 284V250.9H499.536V284H503.536ZM501.536 252.9H505.286V248.9H501.536V252.9ZM503.286 250.9V280.4H507.286V250.9H503.286ZM505.286 282.4H523.336V278.4H505.286V282.4ZM521.336 280.4V284H525.336V280.4H521.336ZM523.336 282H501.536V286H523.336V282Z" fill="#F4B860"/>
<rect x="52" y="60" width="225" height="116" rx="9" fill="#282337"/>
<rect x="442" y="308" width="82" height="44" rx="5" fill="white"/>
<rect x="101" y="142" width="101" height="101" rx="50.5" fill="#F4B860"/>
<rect width="60" height="7" transform="matrix(1 0 0 -1 324 301)" fill="#C83E4D"/>
</svg>
