<svg width="707" height="419" viewBox="0 0 707 419" fill="none" xmlns="http://www.w3.org/2000/svg">
<path d="M707 0H0V419H707V0Z" fill="#332D47"/>
<path d="M276.05 243V209.9H279.8V243H276.05ZM288.915 243V209.9H293.265L313.715 237.75V209.9H317.465V243H313.115L292.665 215.05V243H288.915ZM326.585 243V209.9H350.485V213.5H330.335V225H348.285V228.65H330.335V243H326.585ZM371.436 243.4C368.936 243.4 366.652 242.967 364.586 242.1C362.519 241.233 360.736 240.017 359.236 238.45C357.769 236.883 356.636 235.083 355.836 233.05C355.036 230.983 354.636 228.783 354.636 226.45C354.636 224.083 355.036 221.883 355.836 219.85C356.636 217.817 357.769 216.017 359.236 214.45C360.736 212.883 362.519 211.667 364.586 210.8C366.652 209.933 368.936 209.5 371.436 209.5C373.936 209.5 376.219 209.933 378.286 210.8C380.352 211.667 382.119 212.883 383.586 214.45C385.086 216.017 386.236 217.817 387.036 219.85C387.836 221.883 388.236 224.083 388.236 226.45C388.236 228.783 387.836 230.983 387.036 233.05C386.236 235.083 385.086 236.883 383.586 238.45C382.119 240.017 380.352 241.233 378.286 242.1C376.219 242.967 373.936 243.4 371.436 243.4ZM371.436 239.75C374.136 239.75 376.452 239.167 378.386 238C380.352 236.8 381.852 235.2 382.886 233.2C383.952 231.167 384.486 228.917 384.486 226.45C384.486 223.95 383.952 221.7 382.886 219.7C381.852 217.7 380.352 216.117 378.386 214.95C376.452 213.75 374.136 213.15 371.436 213.15C368.769 213.15 366.452 213.75 364.486 214.95C362.519 216.117 361.002 217.7 359.936 219.7C358.902 221.7 358.386 223.95 358.386 226.45C358.386 228.917 358.902 231.167 359.936 233.2C361.002 235.2 362.519 236.8 364.486 238C366.452 239.167 368.769 239.75 371.436 239.75ZM395.236 243V209.9H411.086C414.486 209.9 417.186 210.833 419.186 212.7C421.219 214.567 422.236 217.083 422.236 220.25C422.236 222.383 421.819 224.083 420.986 225.35C420.186 226.617 419.169 227.583 417.936 228.25C416.702 228.883 415.469 229.35 414.236 229.65L422.936 243H418.486L410.486 230.3H398.986V243H395.236ZM398.986 226.75H410.436C411.636 226.75 412.852 226.567 414.086 226.2C415.319 225.833 416.352 225.183 417.186 224.25C418.052 223.283 418.486 221.95 418.486 220.25C418.486 218.15 417.769 216.5 416.336 215.3C414.902 214.067 413.002 213.45 410.636 213.45H398.986V226.75ZM429.683 243V209.9H434.033L445.883 225.6L457.533 209.9H461.883V243H458.133V215.6L445.883 231.35L433.433 215.6V243H429.683ZM467.066 243L481.116 209.9H485.816L499.866 243H495.716L491.666 233.4H475.266L471.216 243H467.066ZM476.716 229.95H490.216L483.466 213.8L476.716 229.95ZM505.071 243V209.9H508.821V239.4H526.871V243H505.071Z" fill="#F4B860"/>
<path d="M276.05 243H274.05V245H276.05V243ZM276.05 209.9V207.9H274.05V209.9H276.05ZM279.8 209.9H281.8V207.9H279.8V209.9ZM279.8 243V245H281.8V243H279.8ZM278.05 243V209.9H274.05V243H278.05ZM276.05 211.9H279.8V207.9H276.05V211.9ZM277.8 209.9V243H281.8V209.9H277.8ZM279.8 241H276.05V245H279.8V241ZM288.915 243H286.915V245H288.915V243ZM288.915 209.9V207.9H286.915V209.9H288.915ZM293.265 209.9L294.877 208.716L294.278 207.9H293.265V209.9ZM313.715 237.75L312.103 238.934L315.715 243.853V237.75H313.715ZM313.715 209.9V207.9H311.715V209.9H313.715ZM317.465 209.9H319.465V207.9H317.465V209.9ZM317.465 243V245H319.465V243H317.465ZM313.115 243L311.501 244.181L312.1 245H313.115V243ZM292.665 215.05L294.279 213.869L290.665 208.929V215.05H292.665ZM292.665 243V245H294.665V243H292.665ZM290.915 243V209.9H286.915V243H290.915ZM288.915 211.9H293.265V207.9H288.915V211.9ZM291.653 211.084L312.103 238.934L315.327 236.566L294.877 208.716L291.653 211.084ZM315.715 237.75V209.9H311.715V237.75H315.715ZM313.715 211.9H317.465V207.9H313.715V211.9ZM315.465 209.9V243H319.465V209.9H315.465ZM317.465 241H313.115V245H317.465V241ZM314.729 241.819L294.279 213.869L291.051 216.231L311.501 244.181L314.729 241.819ZM290.665 215.05V243H294.665V215.05H290.665ZM292.665 241H288.915V245H292.665V241ZM326.585 243H324.585V245H326.585V243ZM326.585 209.9V207.9H324.585V209.9H326.585ZM350.485 209.9H352.485V207.9H350.485V209.9ZM350.485 213.5V215.5H352.485V213.5H350.485ZM330.335 213.5V211.5H328.335V213.5H330.335ZM330.335 225H328.335V227H330.335V225ZM348.285 225H350.285V223H348.285V225ZM348.285 228.65V230.65H350.285V228.65H348.285ZM330.335 228.65V226.65H328.335V228.65H330.335ZM330.335 243V245H332.335V243H330.335ZM328.585 243V209.9H324.585V243H328.585ZM326.585 211.9H350.485V207.9H326.585V211.9ZM348.485 209.9V213.5H352.485V209.9H348.485ZM350.485 211.5H330.335V215.5H350.485V211.5ZM328.335 213.5V225H332.335V213.5H328.335ZM330.335 227H348.285V223H330.335V227ZM346.285 225V228.65H350.285V225H346.285ZM348.285 226.65H330.335V230.65H348.285V226.65ZM328.335 228.65V243H332.335V228.65H328.335ZM330.335 241H326.585V245H330.335V241ZM364.586 242.1L363.812 243.944L363.812 243.944L364.586 242.1ZM359.236 238.45L357.776 239.817L357.783 239.825L357.791 239.833L359.236 238.45ZM355.836 233.05L353.97 233.772L353.974 233.782L355.836 233.05ZM355.836 219.85L353.974 219.118L353.974 219.118L355.836 219.85ZM359.236 214.45L357.791 213.067L357.783 213.075L357.776 213.083L359.236 214.45ZM364.586 210.8L363.812 208.956L363.812 208.956L364.586 210.8ZM378.286 210.8L379.059 208.956L379.059 208.956L378.286 210.8ZM383.586 214.45L382.126 215.817L382.133 215.825L382.141 215.833L383.586 214.45ZM387.036 233.05L388.897 233.782L388.901 233.772L387.036 233.05ZM383.586 238.45L382.141 237.067L382.133 237.075L382.126 237.083L383.586 238.45ZM378.286 242.1L379.059 243.944L379.059 243.944L378.286 242.1ZM378.386 238L379.419 239.712L379.427 239.707L378.386 238ZM382.886 233.2L381.114 232.271L381.109 232.282L382.886 233.2ZM382.886 219.7L381.109 220.618L381.115 220.63L381.121 220.641L382.886 219.7ZM378.386 214.95L377.331 216.649L377.348 216.66L377.365 216.67L378.386 214.95ZM364.486 214.95L365.506 216.67L365.517 216.664L365.527 216.657L364.486 214.95ZM359.936 219.7L358.171 218.759L358.165 218.77L358.159 218.782L359.936 219.7ZM359.936 233.2L358.153 234.106L358.162 234.124L358.171 234.141L359.936 233.2ZM364.486 238L363.444 239.707L363.454 239.714L363.465 239.72L364.486 238ZM371.436 241.4C369.17 241.4 367.154 241.008 365.359 240.256L363.812 243.944C366.151 244.925 368.701 245.4 371.436 245.4V241.4ZM365.359 240.256C363.537 239.491 361.984 238.429 360.68 237.067L357.791 239.833C359.487 241.605 361.501 242.975 363.812 243.944L365.359 240.256ZM360.696 237.083C359.405 235.704 358.406 234.12 357.697 232.318L353.974 233.782C354.865 236.046 356.133 238.062 357.776 239.817L360.696 237.083ZM357.701 232.328C356.994 230.504 356.636 228.55 356.636 226.45H352.636C352.636 229.017 353.077 231.463 353.97 233.772L357.701 232.328ZM356.636 226.45C356.636 224.313 356.996 222.364 357.697 220.582L353.974 219.118C353.075 221.403 352.636 223.854 352.636 226.45H356.636ZM357.697 220.582C358.406 218.78 359.405 217.196 360.696 215.817L357.776 213.083C356.133 214.838 354.865 216.854 353.974 219.118L357.697 220.582ZM360.68 215.833C361.984 214.471 363.537 213.409 365.359 212.644L363.812 208.956C361.501 209.925 359.487 211.295 357.791 213.067L360.68 215.833ZM365.359 212.644C367.154 211.892 369.17 211.5 371.436 211.5V207.5C368.701 207.5 366.151 207.975 363.812 208.956L365.359 212.644ZM371.436 211.5C373.701 211.5 375.717 211.892 377.512 212.644L379.059 208.956C376.721 207.975 374.17 207.5 371.436 207.5V211.5ZM377.512 212.644C379.331 213.407 380.86 214.465 382.126 215.817L385.046 213.083C383.378 211.302 381.374 209.926 379.059 208.956L377.512 212.644ZM382.141 215.833C383.46 217.211 384.469 218.789 385.174 220.582L388.897 219.118C388.002 216.844 386.711 214.823 385.03 213.067L382.141 215.833ZM385.174 220.582C385.875 222.364 386.236 224.313 386.236 226.45H390.236C390.236 223.854 389.796 221.403 388.897 219.118L385.174 220.582ZM386.236 226.45C386.236 228.55 385.877 230.504 385.17 232.328L388.901 233.772C389.794 231.463 390.236 229.017 390.236 226.45H386.236ZM385.174 232.318C384.469 234.111 383.46 235.689 382.141 237.067L385.03 239.833C386.711 238.077 388.002 236.056 388.897 233.782L385.174 232.318ZM382.126 237.083C380.86 238.435 379.331 239.493 377.512 240.256L379.059 243.944C381.374 242.974 383.378 241.598 385.046 239.817L382.126 237.083ZM377.512 240.256C375.717 241.008 373.701 241.4 371.436 241.4V245.4C374.17 245.4 376.721 244.925 379.059 243.944L377.512 240.256ZM371.436 241.75C374.428 241.75 377.118 241.101 379.419 239.712L377.352 236.288C375.787 237.232 373.843 237.75 371.436 237.75V241.75ZM379.427 239.707C381.699 238.321 383.457 236.451 384.662 234.118L381.109 232.282C380.248 233.949 379.005 235.279 377.344 236.293L379.427 239.707ZM384.657 234.129C385.885 231.788 386.486 229.216 386.486 226.45H382.486C382.486 228.618 382.02 230.545 381.114 232.271L384.657 234.129ZM386.486 226.45C386.486 223.656 385.887 221.077 384.65 218.759L381.121 220.641C382.018 222.323 382.486 224.244 382.486 226.45H386.486ZM384.662 218.782C383.454 216.444 381.69 214.585 379.406 213.23L377.365 216.67C379.015 217.649 380.25 218.956 381.109 220.618L384.662 218.782ZM379.44 213.251C377.135 211.82 374.438 211.15 371.436 211.15V215.15C373.833 215.15 375.769 215.68 377.331 216.649L379.44 213.251ZM371.436 211.15C368.46 211.15 365.771 211.823 363.444 213.243L365.527 216.657C367.133 215.677 369.078 215.15 371.436 215.15V211.15ZM363.465 213.23C361.187 214.581 359.411 216.433 358.171 218.759L361.7 220.641C362.593 218.967 363.851 217.652 365.506 216.67L363.465 213.23ZM358.159 218.782C356.963 221.096 356.386 223.666 356.386 226.45H360.386C360.386 224.234 360.841 222.304 361.712 220.618L358.159 218.782ZM356.386 226.45C356.386 229.205 356.965 231.77 358.153 234.106L361.719 232.294C360.839 230.564 360.386 228.628 360.386 226.45H356.386ZM358.171 234.141C359.409 236.462 361.177 238.324 363.444 239.707L365.527 236.293C363.86 235.276 362.596 233.938 361.7 232.259L358.171 234.141ZM363.465 239.72C365.789 241.099 368.47 241.75 371.436 241.75V237.75C369.068 237.75 367.116 237.235 365.506 236.28L363.465 239.72ZM395.236 243H393.236V245H395.236V243ZM395.236 209.9V207.9H393.236V209.9H395.236ZM419.186 212.7L417.821 214.162L417.827 214.168L417.833 214.173L419.186 212.7ZM420.986 225.35L419.315 224.251L419.304 224.266L419.295 224.282L420.986 225.35ZM417.936 228.25L418.849 230.029L418.868 230.019L418.887 230.009L417.936 228.25ZM414.236 229.65L413.763 227.707L411.017 228.375L412.56 230.742L414.236 229.65ZM422.936 243V245H426.626L424.611 241.908L422.936 243ZM418.486 243L416.793 244.066L417.382 245H418.486V243ZM410.486 230.3L412.178 229.234L411.589 228.3H410.486V230.3ZM398.986 230.3V228.3H396.986V230.3H398.986ZM398.986 243V245H400.986V243H398.986ZM398.986 226.75H396.986V228.75H398.986V226.75ZM414.086 226.2L413.516 224.283L413.516 224.283L414.086 226.2ZM417.186 224.25L415.696 222.915L415.694 222.918L417.186 224.25ZM416.336 215.3L415.031 216.816L415.041 216.825L415.052 216.834L416.336 215.3ZM398.986 213.45V211.45H396.986V213.45H398.986ZM397.236 243V209.9H393.236V243H397.236ZM395.236 211.9H411.086V207.9H395.236V211.9ZM411.086 211.9C414.108 211.9 416.276 212.72 417.821 214.162L420.55 211.238C418.095 208.947 414.863 207.9 411.086 207.9V211.9ZM417.833 214.173C419.391 215.604 420.236 217.553 420.236 220.25H424.236C424.236 216.614 423.046 213.529 420.538 211.227L417.833 214.173ZM420.236 220.25C420.236 222.145 419.862 223.418 419.315 224.251L422.656 226.449C423.775 224.749 424.236 222.621 424.236 220.25H420.236ZM419.295 224.282C418.665 225.279 417.895 225.998 416.985 226.491L418.887 230.009C420.442 229.168 421.706 227.954 422.677 226.418L419.295 224.282ZM417.022 226.471C415.916 227.039 414.83 227.447 413.763 227.707L414.708 231.593C416.108 231.253 417.489 230.728 418.849 230.029L417.022 226.471ZM412.56 230.742L421.26 244.092L424.611 241.908L415.911 228.558L412.56 230.742ZM422.936 241H418.486V245H422.936V241ZM420.178 241.934L412.178 229.234L408.793 231.366L416.793 244.066L420.178 241.934ZM410.486 228.3H398.986V232.3H410.486V228.3ZM396.986 230.3V243H400.986V230.3H396.986ZM398.986 241H395.236V245H398.986V241ZM398.986 228.75H410.436V224.75H398.986V228.75ZM410.436 228.75C411.842 228.75 413.251 228.535 414.655 228.117L413.516 224.283C412.454 224.599 411.429 224.75 410.436 224.75V228.75ZM414.655 228.117C416.234 227.648 417.59 226.8 418.677 225.582L415.694 222.918C415.115 223.566 414.404 224.019 413.516 224.283L414.655 228.117ZM418.675 225.585C419.961 224.15 420.486 222.287 420.486 220.25H416.486C416.486 221.613 416.143 222.417 415.696 222.915L418.675 225.585ZM420.486 220.25C420.486 217.64 419.566 215.396 417.619 213.766L415.052 216.834C415.972 217.604 416.486 218.66 416.486 220.25H420.486ZM417.64 213.784C415.759 212.166 413.357 211.45 410.636 211.45V215.45C412.648 215.45 414.045 215.967 415.031 216.816L417.64 213.784ZM410.636 211.45H398.986V215.45H410.636V211.45ZM396.986 213.45V226.75H400.986V213.45H396.986ZM429.683 243H427.683V245H429.683V243ZM429.683 209.9V207.9H427.683V209.9H429.683ZM434.033 209.9L435.629 208.695L435.029 207.9H434.033V209.9ZM445.883 225.6L444.286 226.805L445.896 228.938L447.489 226.792L445.883 225.6ZM457.533 209.9V207.9H456.526L455.927 208.708L457.533 209.9ZM461.883 209.9H463.883V207.9H461.883V209.9ZM461.883 243V245H463.883V243H461.883ZM458.133 243H456.133V245H458.133V243ZM458.133 215.6H460.133V209.771L456.554 214.372L458.133 215.6ZM445.883 231.35L444.314 232.59L445.896 234.591L447.462 232.578L445.883 231.35ZM433.433 215.6L435.002 214.36L431.433 209.845V215.6H433.433ZM433.433 243V245H435.433V243H433.433ZM431.683 243V209.9H427.683V243H431.683ZM429.683 211.9H434.033V207.9H429.683V211.9ZM432.436 211.105L444.286 226.805L447.479 224.395L435.629 208.695L432.436 211.105ZM447.489 226.792L459.139 211.092L455.927 208.708L444.277 224.408L447.489 226.792ZM457.533 211.9H461.883V207.9H457.533V211.9ZM459.883 209.9V243H463.883V209.9H459.883ZM461.883 241H458.133V245H461.883V241ZM460.133 243V215.6H456.133V243H460.133ZM456.554 214.372L444.304 230.122L447.462 232.578L459.712 216.828L456.554 214.372ZM447.452 230.11L435.002 214.36L431.864 216.84L444.314 232.59L447.452 230.11ZM431.433 215.6V243H435.433V215.6H431.433ZM433.433 241H429.683V245H433.433V241ZM467.066 243L465.225 242.219L464.044 245H467.066V243ZM481.116 209.9V207.9H479.792L479.275 209.119L481.116 209.9ZM485.816 209.9L487.657 209.119L487.14 207.9H485.816V209.9ZM499.866 243V245H502.888L501.707 242.219L499.866 243ZM495.716 243L493.873 243.777L494.389 245H495.716V243ZM491.666 233.4L493.509 232.623L492.993 231.4H491.666V233.4ZM475.266 233.4V231.4H473.939L473.423 232.623L475.266 233.4ZM471.216 243V245H472.543L473.059 243.777L471.216 243ZM476.716 229.95L474.871 229.179L473.712 231.95H476.716V229.95ZM490.216 229.95V231.95H493.22L492.061 229.179L490.216 229.95ZM483.466 213.8L485.311 213.029L483.466 208.614L481.621 213.029L483.466 213.8ZM468.907 243.781L482.957 210.681L479.275 209.119L465.225 242.219L468.907 243.781ZM481.116 211.9H485.816V207.9H481.116V211.9ZM483.975 210.681L498.025 243.781L501.707 242.219L487.657 209.119L483.975 210.681ZM499.866 241H495.716V245H499.866V241ZM497.559 242.223L493.509 232.623L489.823 234.177L493.873 243.777L497.559 242.223ZM491.666 231.4H475.266V235.4H491.666V231.4ZM473.423 232.623L469.373 242.223L473.059 243.777L477.109 234.177L473.423 232.623ZM471.216 241H467.066V245H471.216V241ZM476.716 231.95H490.216V227.95H476.716V231.95ZM492.061 229.179L485.311 213.029L481.621 214.571L488.371 230.721L492.061 229.179ZM481.621 213.029L474.871 229.179L478.561 230.721L485.311 214.571L481.621 213.029ZM505.071 243H503.071V245H505.071V243ZM505.071 209.9V207.9H503.071V209.9H505.071ZM508.821 209.9H510.821V207.9H508.821V209.9ZM508.821 239.4H506.821V241.4H508.821V239.4ZM526.871 239.4H528.871V237.4H526.871V239.4ZM526.871 243V245H528.871V243H526.871ZM507.071 243V209.9H503.071V243H507.071ZM505.071 211.9H508.821V207.9H505.071V211.9ZM506.821 209.9V239.4H510.821V209.9H506.821ZM508.821 241.4H526.871V237.4H508.821V241.4ZM524.871 239.4V243H528.871V239.4H524.871ZM526.871 241H505.071V245H526.871V241Z" fill="#F4B860"/>
<rect width="99" height="116" rx="9" transform="matrix(-1 0 0 1 535 281)" fill="#282337"/>
<rect width="60" height="7" transform="matrix(1 0 0 -1 324 301)" fill="#C83E4D"/>
</svg>
